<svg width="125" height="135" viewBox="0 0 125 135" fill="none" xmlns="http://www.w3.org/2000/svg">
<path d="M69.5776 90.5194C55.8859 98.5087 49.5138 88.5413 48.2568 82.8484C48.3052 91.0983 48.1849 109.442 48.692 114.401C49.4171 121.493 52.608 132.782 67.6921 134.808C79.7593 136.429 94.6693 127.378 100.616 122.65C105.934 118.694 117.731 109.566 122.372 104.703C127.013 99.8403 124.306 94.379 122.372 92.2562L95.2495 67.7961L69.5776 90.5194Z" fill="url(#paint0_linear_57_21)"/>
<path d="M21.9579 25.6183C37.5793 13.226 59.4203 32.5189 68.3882 43.7144C54.5024 37.692 49.8739 46.2238 49.2954 51.2424C48.6686 67.5531 47.7911 103.475 49.2954 116.678C50.7997 129.881 62.6507 134.147 68.3882 134.629C62.0721 135.305 43.9436 131.676 21.9579 111.756C-0.0277451 91.8357 -1.37774 67.6496 0.695467 58.0466C1.27404 52.4006 6.33652 38.0105 21.9579 25.6183Z" fill="url(#paint1_linear_57_21)"/>
<path d="M47.1 6.86794L22.5 25.0989C38.1283 13.7552 59.593 32.8158 68.3718 43.7641L94.9978 67.2039C101.847 61.561 116.848 48.9151 122.058 43.4747C127.267 38.0343 124.228 32.5265 122.058 30.4526C112.652 20.3242 92.3931 4.4082 76.9095 0.790941C64.5227 -2.10287 51.8753 3.63652 47.1 6.86794Z" fill="url(#paint2_linear_57_21)"/>
<defs>
<linearGradient id="paint0_linear_57_21" x1="86.8132" y1="67.7961" x2="86.8132" y2="135" gradientUnits="userSpaceOnUse">
<stop stop-color="#1D18A0"/>
<stop offset="1" stop-color="#36D9FA"/>
<stop offset="1" stop-color="#32B8EB"/>
</linearGradient>
<linearGradient id="paint1_linear_57_21" x1="34.1941" y1="21.6118" x2="34.1941" y2="134.704" gradientUnits="userSpaceOnUse">
<stop stop-color="#1B0C9A"/>
<stop offset="1" stop-color="#38E2FE"/>
<stop offset="1" stop-color="#32B8EB"/>
</linearGradient>
<linearGradient id="paint2_linear_57_21" x1="73.3891" y1="0" x2="73.3891" y2="67.047" gradientUnits="userSpaceOnUse">
<stop offset="0.0001" stop-color="#32B8EB"/>
<stop offset="0.0002" stop-color="#00DBFF"/>
<stop offset="1" stop-color="#1E1FA3"/>
<stop offset="1" stop-color="#1E1FA3"/>
</linearGradient>
</defs>
</svg>
