<?xml version="1.0" standalone="no"?>
<!DOCTYPE svg PUBLIC "-//W3C//DTD SVG 20010904//EN"
 "http://www.w3.org/TR/2001/REC-SVG-20010904/DTD/svg10.dtd">
<svg version="1.0" xmlns="http://www.w3.org/2000/svg"
 width="512.000000pt" height="512.000000pt" viewBox="0 0 512.000000 512.000000"
 preserveAspectRatio="xMidYMid meet">

<g transform="translate(0.000000,512.000000) scale(0.100000,-0.100000)"
fill="#000000" stroke="none">
<path d="M2692 3983 c-23 -3 -36 -11 -42 -29 -16 -42 -4 -54 59 -55 50 -1 53
-2 25 -10 -41 -12 -58 -46 -49 -98 l7 -41 26 21 c37 29 89 49 126 49 41 0 109
-19 118 -33 4 -6 10 -9 13 -5 22 22 -82 97 -137 99 -13 0 -32 4 -43 9 -37 15
52 23 124 12 59 -10 70 -16 103 -52 l36 -41 -13 52 c-25 94 -70 119 -220 124
-55 2 -115 1 -133 -2z"/>
<path d="M2448 3955 c-3 -3 -42 -10 -87 -15 -147 -19 -203 -61 -216 -165 -11
-80 -6 -352 8 -446 7 -48 11 -93 8 -100 -9 -28 -41 120 -52 236 -6 66 -14 134
-18 150 -7 30 -8 30 -66 26 -93 -5 -125 -37 -125 -123 0 -25 8 -49 20 -65 13
-17 20 -41 20 -70 0 -24 7 -55 16 -68 22 -34 80 -65 125 -68 37 -2 40 -5 56
-47 20 -54 86 -153 129 -195 38 -37 73 -65 79 -65 13 0 46 -43 38 -49 -6 -3
-10 -51 -9 -106 1 -65 -4 -112 -13 -132 -7 -18 -15 -33 -17 -33 -16 0 -44 40
-44 63 0 16 -4 26 -10 22 -5 -3 -10 -15 -10 -25 0 -20 -32 -44 -44 -33 -3 3
-6 -4 -6 -16 0 -13 -4 -19 -10 -16 -6 4 -25 -4 -43 -17 -50 -38 -182 -116
-287 -171 -52 -27 -99 -53 -104 -58 -5 -4 -23 -6 -40 -3 -21 4 -27 3 -18 -4
10 -7 -1 -23 -46 -68 -107 -108 -155 -247 -133 -385 6 -41 12 -82 12 -92 0
-15 3 -16 15 -7 21 19 17 -2 -12 -59 -22 -41 -25 -57 -18 -88 l7 -38 7 40 c9
58 57 135 83 135 12 0 53 -14 92 -30 38 -17 74 -30 79 -30 5 0 31 -13 58 -30
66 -41 74 -38 13 6 -54 38 -135 79 -200 99 -49 15 -59 46 -23 69 22 14 30 14
90 -3 36 -10 87 -28 114 -40 l49 -22 -25 24 c-26 25 -117 67 -144 67 -10 0
-16 9 -16 25 0 32 39 58 74 49 21 -5 26 -3 26 14 0 58 71 52 150 -13 30 -25
62 -48 72 -50 9 -3 19 -16 22 -28 7 -27 74 -130 116 -176 l30 -33 112 27 c119
29 277 79 441 139 54 20 108 36 121 36 24 0 102 -23 153 -46 44 -20 53 -41 53
-123 0 -62 2 -70 21 -76 11 -4 22 -5 23 -3 2 1 -1 35 -5 75 -18 142 25 188
166 179 121 -7 234 -60 279 -130 28 -43 42 -111 31 -148 -7 -21 -6 -22 9 -7
10 9 21 44 26 80 6 35 21 109 35 164 36 140 40 197 21 278 -22 93 -59 161
-122 225 -30 30 -54 56 -54 58 0 1 8 5 18 8 9 3 -2 3 -26 2 -32 -3 -59 4 -110
29 -65 31 -317 196 -337 221 -5 6 -23 19 -39 27 -29 14 -30 14 -57 -23 -16
-21 -37 -41 -48 -45 -12 -3 -21 -10 -21 -15 0 -11 -63 -46 -130 -72 -25 -10
-80 -21 -124 -25 l-78 -6 23 43 c13 24 30 50 37 58 6 7 12 19 12 25 0 11 75
86 188 188 23 22 43 50 47 69 4 18 32 59 65 95 51 57 97 135 129 218 7 18 18
27 33 28 15 1 17 3 7 6 -15 3 -16 23 -13 161 2 134 2 145 -6 77 -19 -172 -50
-282 -85 -307 -7 -5 -7 -8 0 -8 19 -1 -30 -24 -57 -28 -24 -3 -28 0 -28 23 0
30 -29 123 -40 130 -17 10 -80 14 -85 5 -4 -6 -27 -10 -52 -10 -45 0 -45 0
-41 30 4 29 4 30 -33 24 -57 -9 -86 2 -115 45 -24 37 -25 42 -14 98 18 89 9
299 -13 345 -11 21 -16 45 -12 57 10 31 -11 61 -44 61 -15 0 -30 -2 -33 -5z
m-33 -204 c78 -27 106 -101 65 -168 -15 -26 -17 -33 -5 -33 7 0 16 -3 19 -8 9
-15 -36 -173 -57 -199 -5 -7 -30 -13 -56 -13 -38 1 -50 6 -66 27 -11 15 -34
42 -52 60 -66 70 -83 95 -83 124 0 32 6 35 29 16 9 -7 29 -19 44 -25 31 -13
31 -12 -5 40 -23 33 -27 121 -6 145 15 19 86 53 108 52 8 0 38 -8 65 -18z
m455 -554 c0 -37 -30 -108 -57 -135 -27 -28 -79 -51 -94 -41 -7 4 -16 6 -19 4
-4 -2 -7 15 -8 38 -2 51 -18 64 -84 73 -42 6 -46 8 -31 19 10 7 52 18 93 25
41 7 100 22 130 35 30 12 58 20 63 18 4 -2 7 -19 7 -36z"/>
<path d="M2373 3728 c-41 -11 -63 -43 -62 -88 1 -19 3 -28 6 -18 4 14 7 13 29
-7 32 -30 111 -39 125 -13 36 67 -25 146 -98 126z m67 -28 c8 -5 12 -11 10
-14 -3 -2 -14 2 -24 10 -22 15 -10 19 14 4z"/>
<path d="M2759 3785 c-28 -15 -66 -65 -49 -65 5 0 10 4 10 8 0 19 79 52 123
52 88 0 146 -56 148 -142 0 -38 2 -41 11 -20 14 27 -2 87 -33 126 -41 52 -151
73 -210 41z"/>
<path d="M2759 3723 c-20 -5 -49 -55 -49 -85 0 -18 2 -20 10 -8 7 12 13 9 30
-13 36 -45 110 -27 110 28 0 14 3 15 15 5 24 -20 19 23 -5 51 l-20 24 6 -30
c3 -18 2 -25 -3 -18 -5 6 -22 17 -38 24 l-30 12 30 7 30 8 -35 0 c-19 0 -42
-2 -51 -5z"/>
<path d="M3197 3623 c-22 -6 -47 -53 -47 -89 0 -21 3 -25 18 -19 9 4 36 14 60
22 33 12 42 20 42 38 0 21 -34 57 -50 54 -3 -1 -13 -3 -23 -6z"/>
<path d="M2980 2766 c0 -2 8 -10 18 -17 15 -13 16 -12 3 4 -13 16 -21 21 -21
13z"/>
<path d="M1960 1775 c13 -14 26 -25 28 -25 3 0 -5 11 -18 25 -13 14 -26 25
-28 25 -3 0 5 -11 18 -25z"/>
<path d="M1546 1775 c-9 -26 -7 -32 5 -12 6 10 9 21 6 23 -2 3 -7 -2 -11 -11z"/>
<path d="M2790 1713 c-36 -25 -67 -49 -70 -53 -3 -4 -27 -24 -55 -45 -27 -20
-52 -40 -55 -44 -3 -3 -23 -19 -45 -35 -22 -17 -49 -38 -60 -47 -105 -93 -222
-157 -338 -186 -179 -44 -269 -22 -362 87 -27 33 -57 60 -66 60 -48 0 -72 -98
-48 -198 39 -165 110 -186 382 -117 l29 8 -4 -76 c-2 -41 -10 -82 -17 -91 -16
-20 -6 -50 14 -42 17 6 16 8 20 -91 1 -40 -1 -73 -4 -73 -4 0 -7 -8 -7 -17 -1
-10 -4 -26 -9 -35 -5 -13 -2 -18 11 -19 14 0 15 -2 4 -6 -20 -8 -44 -33 -31
-33 7 0 7 -8 2 -22 -12 -30 -42 -228 -44 -297 -2 -61 -15 -52 108 -79 28 -7
79 -14 115 -17 36 -2 90 -9 120 -14 30 -5 83 -11 118 -13 60 -4 64 -3 80 24
25 43 50 46 82 8 l28 -33 79 6 c43 3 86 8 96 12 17 7 25 45 9 45 -4 0 -9 12
-10 27 -1 15 -7 32 -12 37 -6 6 -10 16 -10 23 0 24 -45 83 -67 89 -12 3 -25
13 -28 22 -6 21 -76 62 -105 62 -12 0 -28 13 -40 33 -14 22 -20 27 -20 14 0
-10 -4 -15 -10 -12 -5 3 -10 2 -10 -3 0 -18 -32 -8 -47 15 -12 18 -14 39 -9
91 3 37 6 68 6 70 1 9 50 -1 51 -10 0 -7 4 -4 9 7 8 18 9 18 10 -5 1 -24 2
-24 10 -4 7 19 20 23 97 30 48 4 92 8 97 9 5 0 15 -16 21 -35 11 -32 45 -56
45 -31 0 6 -7 11 -15 11 -9 0 -15 10 -16 23 -1 12 -3 46 -5 75 -4 47 -2 53 13
50 13 -2 19 -15 21 -46 3 -34 7 -42 23 -42 11 0 22 -7 25 -15 5 -12 9 -11 27
5 11 11 28 20 36 21 61 3 110 13 140 29 20 11 31 19 26 20 -6 0 -9 17 -7 40 3
27 11 44 28 54 22 15 22 17 9 51 -8 19 -15 50 -15 70 l0 35 78 -6 c139 -12
204 22 258 132 42 88 46 122 7 71 -33 -41 -47 -47 -128 -47 -42 1 -88 11 -155
34 -52 19 -115 41 -140 50 -25 9 -53 21 -62 26 -10 6 -26 10 -36 10 -10 0 -22
4 -27 9 -10 9 -100 40 -233 80 -97 30 -108 52 -53 114 61 68 146 107 238 107
27 0 52 3 56 6 3 3 -6 24 -20 45 -34 51 -54 50 -133 -8z m-13 -913 c-47 -14
-183 -24 -172 -12 12 12 56 19 140 20 46 0 54 -2 32 -8z m-367 -128 c0 -7 5
-10 11 -6 16 10 30 -18 17 -33 -9 -11 -15 -10 -34 8 -12 12 -20 27 -17 35 3 8
0 14 -6 14 -6 0 -11 -8 -12 -17 0 -11 -2 -13 -6 -5 -3 7 -2 19 1 28 5 12 9 12
26 2 11 -7 20 -19 20 -26z"/>
<path d="M1610 1699 c0 -23 18 -60 34 -71 6 -4 24 -8 39 -8 15 0 44 -7 64 -15
30 -13 43 -13 65 -4 15 6 28 15 28 19 0 17 -51 47 -107 65 -32 10 -62 21 -67
26 -6 5 -20 9 -33 9 -17 0 -23 -6 -23 -21z"/>
<path d="M2860 750 c0 -5 -7 -7 -15 -4 -8 4 -15 4 -15 1 0 -13 30 -14 40 -1 9
10 9 14 1 14 -6 0 -11 -4 -11 -10z"/>
<path d="M3038 653 c7 -3 16 -2 19 1 4 3 -2 6 -13 5 -11 0 -14 -3 -6 -6z"/>
</g>
</svg>
